<mxfile host="app.diagrams.net" modified="2022-02-07T16:56:01.536Z" agent="5.0 (Macintosh; Intel Mac OS X 10_15_7) AppleWebKit/537.36 (KHTML, like Gecko) Chrome/97.0.4692.99 Safari/537.36" etag="Q-V0uCVo-1dBnYFqaiCS" version="16.5.3" type="github">
  <diagram id="Cn2aY40CMilv4WCvWpiy" name="Page-1">
    <mxGraphModel dx="1186" dy="796" grid="1" gridSize="10" guides="1" tooltips="1" connect="1" arrows="1" fold="1" page="1" pageScale="1" pageWidth="827" pageHeight="1169" math="0" shadow="0">
      <root>
        <mxCell id="0" />
        <mxCell id="1" parent="0" />
        <mxCell id="JIAmLCm-_7aWp_qbVgXB-27" style="edgeStyle=orthogonalEdgeStyle;rounded=0;orthogonalLoop=1;jettySize=auto;html=1;exitX=0.5;exitY=1;exitDx=0;exitDy=0;entryX=0.5;entryY=0;entryDx=0;entryDy=0;endArrow=classic;endFill=1;" parent="1" source="JIAmLCm-_7aWp_qbVgXB-1" target="JIAmLCm-_7aWp_qbVgXB-26" edge="1">
          <mxGeometry relative="1" as="geometry" />
        </mxCell>
        <mxCell id="JIAmLCm-_7aWp_qbVgXB-30" style="edgeStyle=orthogonalEdgeStyle;rounded=0;orthogonalLoop=1;jettySize=auto;html=1;entryX=0.5;entryY=0;entryDx=0;entryDy=0;endArrow=classic;endFill=1;" parent="1" source="JIAmLCm-_7aWp_qbVgXB-1" target="JIAmLCm-_7aWp_qbVgXB-29" edge="1">
          <mxGeometry relative="1" as="geometry" />
        </mxCell>
        <mxCell id="JIAmLCm-_7aWp_qbVgXB-1" value="Model" style="rounded=0;whiteSpace=wrap;html=1;fillColor=#d5e8d4;strokeColor=#82b366;" parent="1" vertex="1">
          <mxGeometry x="600" y="240" width="80" height="40" as="geometry" />
        </mxCell>
        <mxCell id="JIAmLCm-_7aWp_qbVgXB-2" value="State&lt;br&gt;Machine" style="rounded=0;whiteSpace=wrap;html=1;fillColor=#dae8fc;strokeColor=#6c8ebf;" parent="1" vertex="1">
          <mxGeometry x="600" y="400" width="80" height="40" as="geometry" />
        </mxCell>
        <mxCell id="JIAmLCm-_7aWp_qbVgXB-53" style="edgeStyle=orthogonalEdgeStyle;rounded=0;orthogonalLoop=1;jettySize=auto;html=1;exitX=1;exitY=0.5;exitDx=0;exitDy=0;startArrow=classic;startFill=1;endArrow=none;endFill=0;" parent="1" source="JIAmLCm-_7aWp_qbVgXB-50" target="JIAmLCm-_7aWp_qbVgXB-3" edge="1">
          <mxGeometry relative="1" as="geometry" />
        </mxCell>
        <mxCell id="JIAmLCm-_7aWp_qbVgXB-54" style="edgeStyle=orthogonalEdgeStyle;rounded=0;orthogonalLoop=1;jettySize=auto;html=1;exitX=1;exitY=0.5;exitDx=0;exitDy=0;entryX=0.5;entryY=0;entryDx=0;entryDy=0;startArrow=classic;startFill=1;endArrow=none;endFill=0;" parent="1" source="JIAmLCm-_7aWp_qbVgXB-51" target="JIAmLCm-_7aWp_qbVgXB-3" edge="1">
          <mxGeometry relative="1" as="geometry">
            <mxPoint x="440" y="410" as="targetPoint" />
            <Array as="points">
              <mxPoint x="400" y="260" />
            </Array>
          </mxGeometry>
        </mxCell>
        <mxCell id="JIAmLCm-_7aWp_qbVgXB-3" value="State&lt;br&gt;Manager" style="rounded=0;whiteSpace=wrap;html=1;fillColor=#dae8fc;strokeColor=#6c8ebf;" parent="1" vertex="1">
          <mxGeometry x="360" y="400" width="80" height="40" as="geometry" />
        </mxCell>
        <mxCell id="JIAmLCm-_7aWp_qbVgXB-36" style="edgeStyle=orthogonalEdgeStyle;rounded=0;orthogonalLoop=1;jettySize=auto;html=1;" parent="1" source="JIAmLCm-_7aWp_qbVgXB-7" target="JIAmLCm-_7aWp_qbVgXB-1" edge="1">
          <mxGeometry relative="1" as="geometry" />
        </mxCell>
        <mxCell id="JIAmLCm-_7aWp_qbVgXB-39" style="edgeStyle=orthogonalEdgeStyle;rounded=0;orthogonalLoop=1;jettySize=auto;html=1;exitX=0.5;exitY=0;exitDx=0;exitDy=0;entryX=0.5;entryY=1;entryDx=0;entryDy=0;endArrow=block;endFill=0;" parent="1" source="JIAmLCm-_7aWp_qbVgXB-7" target="JIAmLCm-_7aWp_qbVgXB-38" edge="1">
          <mxGeometry relative="1" as="geometry" />
        </mxCell>
        <mxCell id="JIAmLCm-_7aWp_qbVgXB-7" value="Item" style="rounded=0;whiteSpace=wrap;html=1;fillColor=#d5e8d4;strokeColor=#82b366;" parent="1" vertex="1">
          <mxGeometry x="600" y="160" width="80" height="40" as="geometry" />
        </mxCell>
        <mxCell id="JIAmLCm-_7aWp_qbVgXB-11" value="" style="edgeStyle=orthogonalEdgeStyle;rounded=0;orthogonalLoop=1;jettySize=auto;html=1;exitX=1;exitY=0.5;exitDx=0;exitDy=0;endArrow=ERmany;endFill=0;" parent="1" source="JIAmLCm-_7aWp_qbVgXB-10" target="JIAmLCm-_7aWp_qbVgXB-3" edge="1">
          <mxGeometry relative="1" as="geometry" />
        </mxCell>
        <mxCell id="JIAmLCm-_7aWp_qbVgXB-10" value="Model&lt;br&gt;Factory" style="rounded=0;whiteSpace=wrap;html=1;fillColor=#dae8fc;strokeColor=#6c8ebf;" parent="1" vertex="1">
          <mxGeometry x="120" y="400" width="80" height="40" as="geometry" />
        </mxCell>
        <mxCell id="JIAmLCm-_7aWp_qbVgXB-17" value="Mutation&lt;br&gt;Queue" style="rounded=0;whiteSpace=wrap;html=1;fillColor=#fff2cc;strokeColor=#d6b656;" parent="1" vertex="1">
          <mxGeometry x="420" y="480" width="80" height="40" as="geometry" />
        </mxCell>
        <mxCell id="JIAmLCm-_7aWp_qbVgXB-18" value="Base&lt;br&gt;Snapshot" style="rounded=0;whiteSpace=wrap;html=1;fillColor=#fff2cc;strokeColor=#d6b656;" parent="1" vertex="1">
          <mxGeometry x="300" y="480" width="80" height="40" as="geometry" />
        </mxCell>
        <mxCell id="JIAmLCm-_7aWp_qbVgXB-26" value="State&lt;br&gt;Provider" style="rounded=0;whiteSpace=wrap;html=1;fillColor=#f5f5f5;strokeColor=#666666;fontColor=#333333;" parent="1" vertex="1">
          <mxGeometry x="600" y="320" width="80" height="40" as="geometry" />
        </mxCell>
        <mxCell id="JIAmLCm-_7aWp_qbVgXB-29" value="Mutation&lt;br&gt;Writer" style="rounded=0;whiteSpace=wrap;html=1;fillColor=#f5f5f5;strokeColor=#666666;fontColor=#333333;" parent="1" vertex="1">
          <mxGeometry x="480" y="320" width="80" height="40" as="geometry" />
        </mxCell>
        <mxCell id="JIAmLCm-_7aWp_qbVgXB-28" style="edgeStyle=orthogonalEdgeStyle;rounded=0;orthogonalLoop=1;jettySize=auto;html=1;exitX=0.5;exitY=1;exitDx=0;exitDy=0;entryX=0.5;entryY=0;entryDx=0;entryDy=0;endArrow=oval;endFill=1;" parent="1" source="JIAmLCm-_7aWp_qbVgXB-26" target="JIAmLCm-_7aWp_qbVgXB-2" edge="1">
          <mxGeometry relative="1" as="geometry" />
        </mxCell>
        <mxCell id="JIAmLCm-_7aWp_qbVgXB-31" style="edgeStyle=orthogonalEdgeStyle;rounded=0;orthogonalLoop=1;jettySize=auto;html=1;entryX=1;entryY=0.25;entryDx=0;entryDy=0;endArrow=oval;endFill=1;" parent="1" source="JIAmLCm-_7aWp_qbVgXB-29" target="JIAmLCm-_7aWp_qbVgXB-3" edge="1">
          <mxGeometry relative="1" as="geometry">
            <Array as="points">
              <mxPoint x="520" y="410" />
            </Array>
          </mxGeometry>
        </mxCell>
        <mxCell id="JIAmLCm-_7aWp_qbVgXB-34" style="edgeStyle=orthogonalEdgeStyle;rounded=0;orthogonalLoop=1;jettySize=auto;html=1;entryX=1;entryY=0.5;entryDx=0;entryDy=0;endArrow=oval;endFill=1;" parent="1" source="JIAmLCm-_7aWp_qbVgXB-2" target="JIAmLCm-_7aWp_qbVgXB-3" edge="1">
          <mxGeometry relative="1" as="geometry" />
        </mxCell>
        <mxCell id="JIAmLCm-_7aWp_qbVgXB-38" value="Entity" style="rounded=0;whiteSpace=wrap;html=1;fillColor=#d5e8d4;strokeColor=#82b366;" parent="1" vertex="1">
          <mxGeometry x="600" y="80" width="80" height="40" as="geometry" />
        </mxCell>
        <mxCell id="JIAmLCm-_7aWp_qbVgXB-41" style="edgeStyle=orthogonalEdgeStyle;rounded=0;orthogonalLoop=1;jettySize=auto;html=1;exitX=0.5;exitY=0;exitDx=0;exitDy=0;entryX=0.5;entryY=1;entryDx=0;entryDy=0;endArrow=oval;endFill=1;" parent="1" source="JIAmLCm-_7aWp_qbVgXB-18" target="JIAmLCm-_7aWp_qbVgXB-3" edge="1">
          <mxGeometry relative="1" as="geometry" />
        </mxCell>
        <mxCell id="JIAmLCm-_7aWp_qbVgXB-42" style="edgeStyle=orthogonalEdgeStyle;rounded=0;orthogonalLoop=1;jettySize=auto;html=1;exitX=0.5;exitY=0;exitDx=0;exitDy=0;entryX=0.5;entryY=1;entryDx=0;entryDy=0;endArrow=oval;endFill=1;" parent="1" source="JIAmLCm-_7aWp_qbVgXB-17" target="JIAmLCm-_7aWp_qbVgXB-3" edge="1">
          <mxGeometry relative="1" as="geometry" />
        </mxCell>
        <mxCell id="JIAmLCm-_7aWp_qbVgXB-45" value="Database" style="rounded=0;whiteSpace=wrap;html=1;fillColor=#d5e8d4;strokeColor=#82b366;" parent="1" vertex="1">
          <mxGeometry x="480" y="80" width="80" height="40" as="geometry" />
        </mxCell>
        <mxCell id="JIAmLCm-_7aWp_qbVgXB-47" style="edgeStyle=orthogonalEdgeStyle;rounded=0;orthogonalLoop=1;jettySize=auto;html=1;endArrow=ERmany;endFill=0;entryX=0;entryY=0.5;entryDx=0;entryDy=0;startArrow=oval;startFill=1;" parent="1" source="JIAmLCm-_7aWp_qbVgXB-45" target="JIAmLCm-_7aWp_qbVgXB-38" edge="1">
          <mxGeometry relative="1" as="geometry" />
        </mxCell>
        <mxCell id="JIAmLCm-_7aWp_qbVgXB-55" style="edgeStyle=orthogonalEdgeStyle;rounded=0;orthogonalLoop=1;jettySize=auto;html=1;startArrow=classic;startFill=1;endArrow=none;endFill=0;entryX=0;entryY=0.5;entryDx=0;entryDy=0;exitX=1;exitY=0.5;exitDx=0;exitDy=0;" parent="1" source="JIAmLCm-_7aWp_qbVgXB-48" target="JIAmLCm-_7aWp_qbVgXB-50" edge="1">
          <mxGeometry relative="1" as="geometry">
            <mxPoint x="40" y="260" as="sourcePoint" />
            <Array as="points">
              <mxPoint x="240" y="260" />
              <mxPoint x="240" y="340" />
            </Array>
          </mxGeometry>
        </mxCell>
        <mxCell id="JIAmLCm-_7aWp_qbVgXB-50" value="Outbound&lt;br&gt;Stream" style="rounded=0;whiteSpace=wrap;html=1;fillColor=#f5f5f5;strokeColor=#666666;fontColor=#333333;" parent="1" vertex="1">
          <mxGeometry x="280" y="320" width="80" height="40" as="geometry" />
        </mxCell>
        <mxCell id="JIAmLCm-_7aWp_qbVgXB-56" style="edgeStyle=orthogonalEdgeStyle;rounded=0;orthogonalLoop=1;jettySize=auto;html=1;exitX=1;exitY=0.5;exitDx=0;exitDy=0;startArrow=none;startFill=1;endArrow=none;endFill=0;entryX=0;entryY=0.5;entryDx=0;entryDy=0;" parent="1" source="JIAmLCm-_7aWp_qbVgXB-48" target="JIAmLCm-_7aWp_qbVgXB-51" edge="1">
          <mxGeometry relative="1" as="geometry">
            <mxPoint x="160" y="400" as="sourcePoint" />
          </mxGeometry>
        </mxCell>
        <mxCell id="JIAmLCm-_7aWp_qbVgXB-51" value="Inbound&lt;br&gt;Stream" style="rounded=0;whiteSpace=wrap;html=1;fillColor=#f5f5f5;strokeColor=#666666;fontColor=#333333;" parent="1" vertex="1">
          <mxGeometry x="280" y="240" width="80" height="40" as="geometry" />
        </mxCell>
        <mxCell id="JIAmLCm-_7aWp_qbVgXB-57" value="Party" style="rounded=0;whiteSpace=wrap;html=1;fillColor=#d5e8d4;strokeColor=#82b366;" parent="1" vertex="1">
          <mxGeometry x="120" y="80" width="80" height="40" as="geometry" />
        </mxCell>
        <mxCell id="JIAmLCm-_7aWp_qbVgXB-60" style="edgeStyle=orthogonalEdgeStyle;rounded=0;orthogonalLoop=1;jettySize=auto;html=1;exitX=0.5;exitY=1;exitDx=0;exitDy=0;entryX=0.5;entryY=0;entryDx=0;entryDy=0;startArrow=oval;startFill=1;endArrow=none;endFill=0;" parent="1" source="JIAmLCm-_7aWp_qbVgXB-57" target="JIAmLCm-_7aWp_qbVgXB-48" edge="1">
          <mxGeometry relative="1" as="geometry" />
        </mxCell>
        <mxCell id="JIAmLCm-_7aWp_qbVgXB-48" value="Feed" style="rounded=0;whiteSpace=wrap;html=1;fillColor=#f8cecc;strokeColor=#b85450;" parent="1" vertex="1">
          <mxGeometry x="120" y="240" width="80" height="40" as="geometry" />
        </mxCell>
        <mxCell id="JIAmLCm-_7aWp_qbVgXB-58" style="edgeStyle=orthogonalEdgeStyle;rounded=0;orthogonalLoop=1;jettySize=auto;html=1;startArrow=oval;startFill=1;endArrow=none;endFill=0;entryX=0;entryY=0.5;entryDx=0;entryDy=0;" parent="1" source="JIAmLCm-_7aWp_qbVgXB-57" target="JIAmLCm-_7aWp_qbVgXB-45" edge="1">
          <mxGeometry relative="1" as="geometry">
            <mxPoint x="210" y="100" as="sourcePoint" />
          </mxGeometry>
        </mxCell>
        <mxCell id="JIAmLCm-_7aWp_qbVgXB-61" style="edgeStyle=orthogonalEdgeStyle;rounded=0;orthogonalLoop=1;jettySize=auto;html=1;exitX=0;exitY=0.5;exitDx=0;exitDy=0;entryX=0.75;entryY=0;entryDx=0;entryDy=0;startArrow=oval;startFill=1;endArrow=none;endFill=0;" parent="1" source="JIAmLCm-_7aWp_qbVgXB-7" target="JIAmLCm-_7aWp_qbVgXB-3" edge="1">
          <mxGeometry relative="1" as="geometry" />
        </mxCell>
      </root>
    </mxGraphModel>
  </diagram>
</mxfile>
